<?xml version="1.0" standalone="no"?>
<!DOCTYPE svg PUBLIC "-//W3C//DTD SVG 20010904//EN"
 "http://www.w3.org/TR/2001/REC-SVG-20010904/DTD/svg10.dtd">
<svg version="1.0" xmlns="http://www.w3.org/2000/svg"
 width="276.000000pt" height="276.000000pt" viewBox="0 0 276.000000 276.000000"
 preserveAspectRatio="xMidYMid meet">
<metadata>
Created by potrace 1.14, written by Peter Selinger 2001-2017
</metadata>
<g transform="translate(0.000000,276.000000) scale(0.100000,-0.100000)"
fill="#000000" stroke="none">
<path d="M346 1803 l-345 -268 -1 -422 c0 -244 4 -423 9 -423 5 0 9 167 9 392
0 216 1 405 1 419 1 21 21 42 104 105 112 86 109 84 187 146 96 76 364 284
378 292 6 4 18 1 25 -6 8 -7 49 -40 91 -73 43 -33 156 -121 251 -195 95 -74
205 -160 244 -190 l71 -55 0 -417 c0 -272 3 -418 10 -418 7 0 10 146 10 418
l0 417 206 160 c249 194 410 319 445 345 l27 20 108 -84 c141 -109 415 -323
434 -339 9 -7 41 -32 73 -56 31 -24 57 -48 58 -55 0 -6 1 -194 2 -418 0 -225
4 -408 9 -408 4 0 8 190 8 423 l-1 422 -85 65 c-48 36 -91 70 -98 75 -6 6 -72
58 -146 115 -132 102 -173 134 -299 233 l-61 49 -32 -23 c-18 -13 -51 -38 -73
-55 -22 -18 -107 -85 -190 -149 -82 -64 -205 -159 -273 -212 l-123 -95 -42 33
c-23 19 -49 39 -57 46 -8 7 -71 56 -140 109 -69 52 -134 103 -145 113 -11 9
-47 37 -80 61 -33 25 -62 47 -65 50 -13 13 -149 120 -153 120 -3 0 -161 -120
-351 -267z"/>
</g>
</svg>
